Coordinates
version=1
nRows=8
nColumns=36
inDegrees=yes

Units are S.I. units (second, meters, Newtons, ...)
If the header above contains a line with 'inDegrees', this indicates whether rotational values are in degrees (yes) or radians (no).

endheader
time	pelvis_tilt	pelvis_list	pelvis_rotation	pelvis_tx	pelvis_ty	pelvis_tz	hip_flexion_r	hip_adduction_r	hip_rotation_r	knee_angle_r	knee_angle_r_beta	ankle_angle_r	subtalar_angle_r	mtp_angle_r	hip_flexion_l	hip_adduction_l	hip_rotation_l	knee_angle_l	knee_angle_l_beta	ankle_angle_l	subtalar_angle_l	mtp_angle_l	lumbar_extension	lumbar_bending	lumbar_rotation	arm_flex_r	arm_add_r	arm_rot_r	elbow_flex_r	pro_sup_r	arm_flex_l	arm_add_l	arm_rot_l	elbow_flex_l	pro_sup_l
      4.47083330	     -4.21998775	      0.20208348	     -2.29653152	      0.42055593	      0.91264020	     -0.02639913	      4.09583501	     -5.02439149	     -1.59964156	      0.91350225	      0.01594362	     -2.84072006	    -19.44949378	     -7.49999987	      1.31111174	     -6.38486051	     -8.56493162	      0.85040012	      0.01484228	      2.77899445	     -1.74312901	     -7.49999987	      5.71625356	      0.28028731	      0.26433382	     -4.22916603	     -4.57041219	     -3.63270008	     26.64548103	     74.87650789	     -4.57648659	     -9.36801153	     11.88194116	     31.66016661	     81.97549445
      4.47500000	     -4.19308339	      0.21215853	     -2.32653678	      0.42009695	      0.91367560	     -0.02611046	      4.09705982	     -5.05657784	     -1.58794709	      0.88618200	      0.01546679	     -2.81833866	    -19.35821582	     -7.49999987	      1.27925339	     -6.34728259	     -8.71352333	      0.79553894	      0.01388477	      2.84834902	     -1.61180993	     -7.49999987	      5.60682888	      0.30497547	      0.27053783	     -4.02440426	     -4.61941162	     -3.40171428	     26.68728354	     74.96074365	     -4.28055813	     -9.28546843	     11.92018666	     31.66090565	     81.95941319
      4.47916670	     -4.22918416	      0.23717322	     -2.30272091	      0.41985394	      0.91251306	     -0.02723487	      4.16481692	     -5.12760803	     -1.65150823	      0.84395599	      0.01472981	     -2.92085894	    -19.31534031	     -7.49999987	      1.35625639	     -6.29928451	     -8.74723308	      0.76809862	      0.01340585	      2.84273224	     -1.60133625	     -7.49999987	      5.58223589	      0.32721610	      0.33398731	     -3.92479708	     -4.69722212	     -3.18100599	     26.81525344	     74.69804220	     -3.95866283	     -9.24152817	     12.15619203	     31.73561418	     81.91822988
      4.48333330	     -4.19262207	      0.24690205	     -2.26360422	      0.41961423	      0.91234026	     -0.02812504	      4.15007775	     -5.18689095	     -1.78622316	      0.83166812	      0.01451535	     -2.89352328	    -19.03493275	     -7.49999987	      1.34529865	     -6.26129879	     -8.83602836	      0.72242209	      0.01260864	      2.84599328	     -1.41865463	     -7.49999987	      5.47734174	      0.33375806	      0.34763333	     -3.79300043	     -4.78412454	     -2.70450213	     26.88355892	     74.34598015	     -3.60222436	     -9.17776422	     12.59608764	     31.72855057	     81.56664669
      4.48750000	     -4.28237250	      0.27904749	     -2.23756091	      0.41949070	      0.91350090	     -0.02828437	      4.26110216	     -5.26153260	     -1.71263912	      0.82372588	      0.01437673	     -3.18984862	    -19.29670474	     -7.49999987	      1.46675542	     -6.21142069	     -8.94018259	      0.69220831	      0.01208131	      2.78318743	     -1.29695002	     -7.49999987	      5.58142934	      0.33454984	      0.35315874	     -3.64735872	     -4.98690253	     -0.98832753	     26.85609989	     69.69262655	     -3.23961991	     -9.24649600	     14.34006472	     31.59203070	     75.17385451
      4.49166670	     -4.20539864	      0.26678647	     -2.18340899	      0.41978079	      0.91354399	     -0.02877616	      4.17409359	     -5.29657722	     -1.93534167	      0.81679737	      0.01425580	     -3.17572115	    -18.98211336	     -7.49999987	      1.39198244	     -6.19267138	     -8.97578094	      0.66202783	      0.01155457	      2.73524209	     -1.23013583	     -7.49999987	      5.38828779	      0.37745130	      0.30517799	     -3.58735689	     -4.81890593	     -2.61969408	     27.01788656	     74.77353036	     -3.16211485	     -8.90038198	     12.23182767	     31.85746978	     82.23597779
      4.49583330	     -4.32160043	      0.28858835	     -2.16426220	      0.41922752	      0.92256345	     -0.02741138	      4.31188941	     -5.31156024	     -2.06754501	      0.83070642	      0.01449856	     -3.16871930	    -18.74982141	     -7.49999987	      1.51778367	     -6.16234466	     -9.00988193	      0.63618955	      0.01110360	      2.54682585	     -1.13150883	     -7.49999987	      5.58260874	      0.36901414	      0.22571307	     -3.32591646	     -4.67641350	     -2.65126792	     26.48307829	     74.01088538	     -2.87119164	     -8.67044385	     12.08645356	     31.34329442	     81.15101627
      4.50000000	     -4.06312462	      0.29824003	     -2.11302130	      0.42005412	      0.91473124	     -0.02973194	      3.98577807	     -5.37360102	     -2.20309344	      0.77308147	      0.01349282	     -3.18072009	    -18.57247842	     -7.49999987	      1.22222699	     -6.09173520	     -9.06971514	      0.62075806	      0.01083427	      2.45876894	     -1.03895397	     -7.49999987	      5.10263749	      0.38890967	      0.19361617	     -3.40526298	     -4.77264523	     -2.30699527	     27.29067534	     72.72094677	     -2.78075401	     -8.66184014	     12.45890340	     32.12065779	     79.21952275
